<mxfile host="app.diagrams.net" modified="2023-05-30T11:47:41.674Z" agent="Mozilla/5.0 (Windows NT 10.0; Win64; x64; rv:109.0) Gecko/20100101 Firefox/113.0" version="21.3.5" etag="uzxP-J2wRwMwzXToXJTz" type="github">
  <diagram name="Side-1" id="jrpM8eiOk0qvS5Oqm2Cb">
    <mxGraphModel>
      <root>
        <mxCell id="0" />
        <mxCell id="1" parent="0" />
      </root>
    </mxGraphModel>
  </diagram>
</mxfile>
